<svg viewBox="0 0 120 120" xmlns="http://www.w3.org/2000/svg">
  <defs>
    <radialGradient id="sunGradient" cx="50%" cy="50%" r="50%">
      <stop offset="0%" style="stop-color:#D4941C;stop-opacity:1" />
      <stop offset="100%" style="stop-color:#B87B14;stop-opacity:1" />
    </radialGradient>
  </defs>

  <!-- Central circle -->
  <circle cx="60" cy="60" r="15" fill="url(#sunGradient)"/>

  <!-- Rays - 24 rays total -->
  <!-- Top ray -->
  <path d="M60,10 L62,40 L58,40 Z" fill="url(#sunGradient)"/>

  <!-- Rays at 15° intervals -->
  <path d="M75.2,13.6 L72.3,42.8 L68.5,41.8 Z" fill="url(#sunGradient)"/>
  <path d="M89,22 L79.5,47.5 L76.2,45.2 Z" fill="url(#sunGradient)"/>
  <path d="M98.5,35 L83,54 L80.5,50.5 Z" fill="url(#sunGradient)"/>

  <!-- Right ray -->
  <path d="M110,60 L80,62 L80,58 Z" fill="url(#sunGradient)"/>

  <path d="M106.4,75.2 L77.2,72.3 L78.2,68.5 Z" fill="url(#sunGradient)"/>
  <path d="M98,89 L72.5,79.5 L74.8,76.2 Z" fill="url(#sunGradient)"/>
  <path d="M85,98.5 L66,83 L69.5,80.5 Z" fill="url(#sunGradient)"/>

  <!-- Bottom ray -->
  <path d="M60,110 L58,80 L62,80 Z" fill="url(#sunGradient)"/>

  <path d="M44.8,106.4 L47.7,77.2 L51.5,78.2 Z" fill="url(#sunGradient)"/>
  <path d="M31,98 L40.5,72.5 L43.8,74.8 Z" fill="url(#sunGradient)"/>
  <path d="M21.5,85 L37,66 L39.5,69.5 Z" fill="url(#sunGradient)"/>

  <!-- Left ray -->
  <path d="M10,60 L40,58 L40,62 Z" fill="url(#sunGradient)"/>

  <path d="M13.6,44.8 L42.8,47.7 L41.8,51.5 Z" fill="url(#sunGradient)"/>
  <path d="M22,31 L47.5,40.5 L45.2,43.8 Z" fill="url(#sunGradient)"/>
  <path d="M35,21.5 L54,37 L50.5,39.5 Z" fill="url(#sunGradient)"/>

  <!-- Intermediate rays (between main directions) -->
  <path d="M67.5,12.5 L67.5,42 L64.5,41.5 Z" fill="url(#sunGradient)"/>
  <path d="M82,16 L76,44 L73,42.5 Z" fill="url(#sunGradient)"/>
  <path d="M94.5,25 L82,51 L79,48.5 Z" fill="url(#sunGradient)"/>
  <path d="M104,38 L84,58 L81.5,54.5 Z" fill="url(#sunGradient)"/>
  <path d="M107.5,52.5 L78,55.5 L78.5,52.5 Z" fill="url(#sunGradient)"/>
  <path d="M104,67.5 L78,67.5 L78.5,64.5 Z" fill="url(#sunGradient)"/>
</svg>
